<?xml version="1.0" encoding="UTF-8"?>
<svg xmlns="http://www.w3.org/2000/svg" xmlns:xlink="http://www.w3.org/1999/xlink" width="50pt" height="50pt" viewBox="0 0 50 50" version="1.1">
<g id="surface1">
<path style=" stroke:none;fill-rule:evenodd;fill:rgb(78.039216%,16.078431%,16.470588%);fill-opacity:1;" d="M 50 25 C 50 38.808594 38.808594 50 25 50 C 11.191406 50 0 38.808594 0 25 C 0 11.191406 11.191406 0 25 0 C 38.808594 0 50 11.191406 50 25 Z M 50 25 "/>
<path style=" stroke:none;fill-rule:evenodd;fill:rgb(65.098039%,65.882353%,67.058824%);fill-opacity:1;" d="M 22.597656 40.511719 L 22.277344 40.425781 C 22.167969 40.265625 22.226562 40.015625 21.898438 39.859375 L 21.898438 39.652344 C 22.011719 39.53125 22.332031 39.53125 22.546875 39.609375 C 22.332031 39.859375 22.867188 40.144531 22.699219 40.425781 Z M 22.597656 40.511719 "/>
<path style=" stroke:none;fill-rule:evenodd;fill:rgb(13.333333%,12.156863%,14.117647%);fill-opacity:1;" d="M 30.300781 41.203125 C 30.21875 41.039062 30.300781 40.796875 30.257812 40.59375 C 30.300781 40.59375 30.429688 40.386719 30.554688 40.511719 L 30.464844 40.628906 C 30.464844 40.757812 30.429688 40.878906 30.554688 41.039062 C 30.765625 41.039062 30.511719 41.203125 30.429688 41.164062 Z M 18.585938 39.125 C 18.285156 38.917969 18.285156 38.46875 18.285156 38.101562 L 18.460938 37.9375 C 18.585938 37.898438 18.707031 37.9375 18.878906 37.898438 C 19.089844 38.265625 18.878906 38.628906 18.667969 39.042969 Z M 14.128906 36.34375 L 13.328125 35.652344 C 12.699219 35.324219 12.277344 34.503906 12.238281 33.773438 L 12.746094 32.140625 C 13.078125 31.445312 13.835938 30.628906 13.457031 29.734375 C 13.375 29.367188 13.121094 29.160156 12.910156 28.789062 L 13.417969 27.851562 C 13.496094 27.972656 13.539062 28.015625 13.628906 28.054688 C 15.136719 29.6875 14.175781 31.613281 13.628906 33.28125 C 13.585938 33.613281 13.664062 34.097656 13.917969 34.265625 L 15.015625 34.75 C 15.097656 34.914062 15.136719 35 15.308594 35.039062 L 17.410156 35.285156 L 17.445312 35.40625 L 17.535156 35.449219 L 19.214844 34.914062 L 20.140625 34.75 L 21.269531 34.222656 C 21.480469 34.546875 21.527344 35 21.734375 35.160156 L 21.898438 35.203125 L 23.417969 34.953125 C 23.117188 34.300781 22.660156 33.773438 22.277344 33.367188 L 25.808594 33.855469 L 25.386719 33.078125 C 25.976562 32.710938 25.386719 32.097656 25.472656 31.773438 L 27.195312 32.550781 C 28.035156 33.652344 29.378906 32.914062 30.429688 33.484375 C 31.144531 34.710938 30.09375 36.019531 30.429688 37.246094 C 30.597656 37.609375 30.976562 37.8125 31.351562 37.898438 L 32.402344 37.734375 L 32.949219 36.101562 C 33.035156 35.566406 32.402344 35.40625 32.191406 35.160156 L 31.4375 33.078125 C 31.648438 32.914062 31.480469 32.796875 31.480469 32.632812 C 31.28125 32.410156 31.449219 32.234375 31.984375 32.097656 L 32.234375 32.097656 C 32.277344 32.019531 32.402344 31.894531 32.277344 31.773438 C 32.066406 31.773438 32.234375 31.613281 32.148438 31.484375 C 32.320312 31.484375 32.574219 31.484375 32.785156 31.445312 L 33.539062 32.957031 C 33.539062 33.039062 33.539062 33.203125 33.625 33.320312 C 33.957031 33.246094 34.167969 33.613281 34.335938 33.855469 L 35.515625 36.0625 C 35.386719 36.019531 35.261719 35.933594 35.097656 35.855469 C 34.210938 36.546875 34.796875 37.976562 33.496094 38.425781 L 32.402344 39.734375 C 32.402344 39.8125 32.191406 39.777344 32.148438 39.941406 C 31.984375 40.015625 31.816406 39.898438 31.605469 40.0625 C 31.480469 40.101562 31.5625 40.265625 31.515625 40.425781 C 31.605469 40.550781 31.773438 40.628906 31.855469 40.878906 C 32.65625 41.082031 33.835938 40.222656 34.378906 41.242188 C 34.167969 41.328125 33.625 41 33.371094 41.242188 C 33.328125 41.445312 33.328125 41.648438 33.371094 41.898438 C 33.242188 41.980469 33.035156 41.734375 32.867188 41.855469 C 32.738281 41.980469 32.90625 42.183594 32.867188 42.347656 L 32.824219 42.511719 C 32.445312 42.308594 31.726562 41.648438 31.269531 42.144531 C 31.097656 42.226562 30.886719 42.261719 30.675781 42.144531 L 30.597656 41.898438 C 30.132812 41.898438 29.882812 42.347656 29.503906 42.429688 C 29.378906 42.183594 29.546875 41.980469 29.546875 41.734375 C 29.085938 41.816406 28.410156 41.695312 28.035156 42.144531 L 27.90625 42.101562 L 29.335938 40.832031 C 29.335938 40.757812 29.292969 40.59375 29.207031 40.46875 C 28.996094 40.265625 28.539062 39.898438 28.117188 40.0625 C 27.699219 40.015625 27.570312 40.46875 27.195312 40.628906 C 26.984375 40.46875 26.894531 39.859375 26.4375 39.941406 C 25.636719 39.980469 24.507812 39.859375 23.957031 39.125 L 23.835938 39.164062 C 23.835938 39.609375 23.667969 40.222656 24.128906 40.511719 C 24.46875 40.714844 24.882812 40.550781 25.261719 40.59375 C 25.425781 40.796875 25.722656 40.917969 25.890625 41.164062 C 25.472656 41.125 25.050781 41.039062 24.589844 41.082031 L 24.550781 41.164062 C 25.003906 41.242188 25.34375 41.53125 25.554688 41.941406 C 25.386719 41.941406 25.003906 41.777344 24.792969 41.574219 L 24.714844 41.613281 C 24.589844 41.734375 24.714844 41.941406 24.757812 42.101562 C 24.589844 42.183594 24.425781 42.023438 24.300781 41.816406 C 23.957031 41.53125 23.5 41.613281 23.082031 41.53125 C 22.785156 41.734375 23.207031 42.058594 23.328125 42.308594 C 22.996094 42.261719 22.738281 42.023438 22.320312 42.058594 C 22.03125 41.648438 21.480469 41.574219 20.980469 41.734375 C 20.894531 41.574219 20.851562 41.367188 20.597656 41.285156 L 18.707031 41.898438 C 18.796875 41.613281 19.257812 41.574219 19.46875 41.285156 C 19.167969 41.203125 18.835938 41.445312 18.496094 41.410156 C 19.167969 41 20.007812 40.757812 20.726562 40.675781 C 20.851562 40.550781 20.769531 40.347656 20.808594 40.183594 C 20.6875 40.144531 20.640625 39.980469 20.476562 39.898438 C 20.386719 39.609375 20.476562 39.328125 20.558594 38.996094 C 20.726562 38.832031 21.058594 38.589844 21.226562 38.382812 L 21.058594 37.363281 C 20.894531 37.246094 20.980469 37.488281 20.808594 37.488281 C 20.808594 37.328125 20.6875 37.328125 20.640625 37.160156 C 20.351562 36.957031 19.96875 36.996094 19.636719 36.957031 C 19.636719 37.121094 19.46875 36.957031 19.425781 37.121094 C 19.929688 37.285156 19.800781 37.8125 19.886719 38.265625 L 19.546875 39.164062 C 19.003906 39.734375 18.117188 39.8125 17.367188 39.695312 C 16.695312 39.492188 16.4375 38.714844 16.148438 38.144531 L 16.394531 36.546875 Z M 14.128906 36.34375 "/>
<path style=" stroke:none;fill-rule:evenodd;fill:rgb(100%,100%,100%);fill-opacity:1;" d="M 22.53125 21.488281 L 22.277344 21.574219 C 21.566406 22.097656 20.519531 22.183594 20.007812 22.914062 L 20.097656 23.121094 C 20.265625 23.207031 20.519531 23.207031 20.597656 23.363281 C 20.429688 23.65625 20.308594 23.9375 20.097656 24.0625 L 18.585938 24.265625 C 17.199219 24.429688 15.894531 22.632812 14.425781 23.121094 C 13.289062 23.691406 12.601562 24.589844 11.972656 25.570312 L 11.859375 25.78125 L 11.527344 27.003906 L 11.4375 27.691406 L 10.554688 30.261719 C 10.6875 31.078125 10.554688 32.222656 11.355469 32.753906 C 11.484375 32.632812 11.316406 32.503906 11.316406 32.429688 C 11.105469 31.6875 11.316406 30.792969 11.695312 30.21875 L 11.648438 30.140625 C 11.816406 29.894531 12.070312 29.8125 12.15625 29.527344 C 12.535156 29.28125 12.578125 28.957031 12.910156 28.789062 L 13.417969 27.851562 C 13.417969 27.648438 13.585938 27.441406 13.707031 27.238281 C 13.707031 26.992188 13.707031 26.710938 13.917969 26.507812 C 14.546875 25.8125 15.222656 24.996094 16.316406 24.878906 C 16.605469 24.996094 16.859375 24.878906 17.199219 25.042969 C 15.265625 27.605469 17.199219 31.238281 14.214844 32.871094 L 13.917969 34.265625 L 13.328125 35.652344 C 13.164062 35.933594 12.910156 36.101562 12.910156 36.429688 C 13.707031 37.363281 13.246094 38.511719 13.707031 39.449219 L 15.265625 39.652344 L 14.546875 38.347656 L 14.007812 37.246094 C 13.835938 36.996094 14.007812 36.546875 14.128906 36.34375 L 15.015625 34.773438 L 15.644531 33.449219 L 20.351562 32.183594 L 19.425781 33.816406 L 20.140625 34.75 L 21.269531 34.222656 C 21.148438 34.222656 21.105469 34.0625 20.980469 33.933594 C 22.03125 33.246094 22.738281 32.464844 23.585938 31.613281 L 26.683594 31.445312 L 29.671875 30.21875 L 30.554688 29.976562 C 32.355469 29.894531 34.046875 28.464844 35.890625 28.421875 C 36.015625 28.585938 36.226562 28.382812 36.355469 28.464844 C 36.566406 28.917969 36.8125 29.367188 37.320312 29.570312 C 37.445312 29.8125 37.152344 30.054688 37.234375 30.261719 L 37.992188 30.832031 L 37.949219 32.835938 C 38.160156 33.40625 38.789062 33.570312 39.296875 33.652344 C 39.210938 33.164062 39.378906 32.589844 39.042969 32.222656 C 38.832031 32.183594 38.878906 31.9375 38.703125 31.894531 L 38.578125 29.9375 C 37.78125 29.367188 36.988281 28.421875 37.109375 27.363281 L 35.304688 27.15625 L 37.195312 25.121094 C 37.65625 25.492188 38.160156 25.9375 38.578125 26.304688 C 39 26.546875 38.667969 26.875 38.746094 27.15625 C 38.914062 27.285156 39.125 27.285156 39.167969 27.363281 C 39.296875 27.648438 39.296875 27.9375 39.296875 28.179688 L 39.085938 28.257812 C 38.878906 28.550781 38.789062 28.871094 38.878906 29.160156 L 39.882812 29.851562 C 40.050781 28.832031 39.964844 27.691406 39.671875 26.625 C 38.957031 25.773438 38.199219 24.792969 37.78125 23.773438 C 36.566406 23.570312 36.015625 24.792969 35.050781 25.082031 L 34.886719 24.917969 C 35.679688 24.023438 34.839844 23.207031 34.464844 22.429688 L 33.453125 21.527344 C 32.785156 20.183594 32.109375 18.832031 31.9375 17.484375 C 32.574219 17.328125 33.117188 17.609375 33.664062 17.773438 C 34.125 17.851562 34.125 18.300781 34.257812 18.507812 C 34.628906 18.753906 35.132812 18.589844 35.515625 18.589844 C 35.597656 18.464844 35.636719 18.382812 35.636719 18.347656 C 35.726562 18.144531 35.515625 18.058594 35.46875 17.894531 C 35.597656 17.648438 35.765625 17.609375 35.765625 17.363281 L 34.464844 16.261719 L 33.875 14.792969 C 33.789062 14.585938 33.664062 14.503906 33.539062 14.425781 L 33.285156 14.34375 C 33.160156 14.179688 33.207031 13.894531 33.035156 13.730469 L 33.117188 13.609375 C 33.414062 13.652344 33.496094 13.894531 33.707031 13.894531 C 33.625 13.652344 33.578125 13.402344 33.414062 13.320312 L 31.9375 13.039062 C 31.773438 12.953125 31.6875 12.871094 31.605469 12.792969 C 31.183594 12.503906 30.511719 12.425781 30.132812 12.585938 C 30.34375 12.75 30.597656 12.792969 30.636719 13.039062 L 29.546875 13.117188 C 29.125 13.257812 28.714844 13.300781 28.3125 13.324219 C 27.660156 13.710938 27.28125 14.167969 27.039062 14.644531 C 27.140625 15.007812 26.371094 15.136719 25.925781 15.089844 C 25.871094 15.085938 25.808594 15.074219 25.746094 15.050781 C 25.15625 15.03125 24.816406 15.113281 24.238281 15.414062 C 23.578125 15.347656 22.914062 15.214844 22.316406 14.957031 C 21.847656 14.753906 21.605469 14.824219 21.507812 15.269531 C 21.199219 16.664062 21.710938 18.695312 22.511719 19.757812 C 22.976562 20.660156 21.660156 20.125 22.109375 21.28125 C 22.277344 21.242188 22.53125 21.367188 22.53125 21.488281 Z M 22.53125 21.488281 "/>
<path style=" stroke:none;fill-rule:evenodd;fill:rgb(43.529412%,0%,1.960784%);fill-opacity:1;" d="M 19.003906 13.730469 L 17.15625 14.914062 L 15.765625 16.464844 C 16.316406 16.304688 16.816406 16.21875 17.324219 16.261719 C 17.488281 16.304688 17.445312 16.511719 17.578125 16.464844 C 17.65625 17.691406 15.894531 17.242188 15.433594 18.015625 C 15.433594 18.261719 15.433594 18.464844 15.554688 18.667969 C 15.765625 19.445312 14.96875 19.933594 14.59375 20.304688 L 13.585938 22.183594 L 16.4375 21.613281 C 18.078125 21.777344 19.929688 22.464844 21.359375 21.777344 L 22.109375 21.28125 C 21.660156 20.125 22.976562 20.660156 22.511719 19.757812 C 21.710938 18.695312 21.199219 16.664062 21.507812 15.269531 C 21.605469 14.824219 21.847656 14.753906 22.316406 14.957031 C 22.914062 15.214844 23.578125 15.347656 24.238281 15.414062 C 24.816406 15.113281 25.15625 15.03125 25.746094 15.050781 C 26.105469 15.171875 27.160156 15.0625 27.039062 14.644531 C 27.28125 14.167969 27.664062 13.707031 28.316406 13.324219 C 27.804688 13.222656 26.578125 13.484375 26.101562 13.769531 C 25.707031 14.171875 25.269531 14.269531 24.660156 14.074219 C 24.160156 13.925781 23.640625 13.777344 23.160156 13.246094 C 21.777344 12.914062 20.351562 12.914062 19.003906 13.730469 "/>
<path style=" stroke:none;fill-rule:evenodd;fill:rgb(100%,100%,100%);fill-opacity:1;" d="M 20 17.789062 C 21.125 18.636719 21.304688 17.417969 20.613281 15.945312 C 20.320312 15.324219 19.609375 14.691406 18.8125 13.859375 L 18.164062 11.972656 L 17.746094 11.972656 C 17.746094 11.527344 17.410156 11.15625 17.277344 10.832031 C 16.53125 10.832031 16.394531 11.648438 16.4375 11.808594 C 16.101562 13.269531 17.800781 13.246094 17.988281 14.40625 C 18.613281 15.078125 18.828125 18.664062 20 17.789062 Z M 20 17.789062 "/>
<path style=" stroke:none;fill-rule:evenodd;fill:rgb(100%,100%,100%);fill-opacity:1;" d="M 26.105469 13.765625 C 26.015625 13.050781 25.980469 12.117188 26.226562 11.566406 L 25.722656 9.890625 C 25.976562 9.765625 26.101562 9.6875 26.265625 9.605469 C 26.4375 9.359375 26.351562 9.117188 26.3125 8.914062 C 26.183594 8.707031 25.890625 8.789062 25.722656 8.707031 C 24.378906 7.808594 23.160156 9.648438 21.777344 9.074219 L 21.898438 9.238281 C 22.15625 9.523438 22.617188 9.445312 22.828125 9.648438 C 22.699219 9.933594 22.199219 9.6875 22.03125 9.933594 C 22.578125 10.21875 23.117188 10.015625 23.625 9.933594 C 23.878906 10.136719 24.089844 10.097656 24.339844 10.136719 C 24.339844 10.339844 24.300781 10.464844 24.214844 10.582031 C 23.265625 11.148438 23.507812 12.457031 23.160156 13.242188 C 23.160156 13.242188 23.160156 13.246094 23.160156 13.246094 C 23.640625 13.777344 24.160156 13.925781 24.660156 14.074219 C 25.269531 14.269531 25.707031 14.171875 26.101562 13.769531 C 26.101562 13.769531 26.105469 13.769531 26.105469 13.765625 "/>
<path style=" stroke:none;fill-rule:evenodd;fill:rgb(13.333333%,12.156863%,14.117647%);fill-opacity:1;" d="M 11.527344 27.003906 L 11.4375 27.691406 C 10.644531 27.324219 9.882812 26.421875 10.015625 25.492188 C 10.164062 24.933594 10.398438 24.59375 11.328125 24.996094 C 11.40625 24.792969 11.421875 24.503906 11.289062 24.101562 C 11.640625 24.496094 11.832031 24.984375 11.972656 25.570312 L 11.859375 25.78125 C 11.503906 25.675781 11.136719 25.730469 10.808594 25.765625 C 11.023438 25.660156 11.195312 25.539062 11.25 25.324219 C 10.949219 25.027344 10.6875 25.078125 10.542969 25.527344 C 10.375 26.21875 11.144531 26.679688 11.527344 27.003906 "/>
<path style=" stroke:none;fill-rule:evenodd;fill:rgb(99.607843%,99.607843%,99.607843%);fill-opacity:1;" d="M 26.085938 9.910156 C 26.085938 9.660156 25.261719 9.4375 25.546875 9.074219 Z M 26.085938 9.910156 "/>
<path style=" stroke:none;fill-rule:evenodd;fill:rgb(99.607843%,99.607843%,99.607843%);fill-opacity:1;" d="M 23.066406 30.078125 C 23.316406 29.847656 22.535156 29.480469 23.542969 29.246094 C 24.324219 29.519531 23.316406 29.753906 23.542969 30.035156 Z M 23.066406 30.078125 "/>
<path style=" stroke:none;fill-rule:evenodd;fill:rgb(99.607843%,99.607843%,99.607843%);fill-opacity:1;" d="M 22.988281 15.46875 C 22.839844 15.195312 22.792969 14.976562 22.636719 14.636719 C 22.96875 14.703125 23.5625 15.074219 23.941406 15.402344 C 23.714844 15.492188 23.4375 15.523438 23.136719 15.292969 Z M 22.988281 15.46875 "/>
<path style=" stroke:none;fill-rule:evenodd;fill:rgb(99.607843%,99.607843%,99.607843%);fill-opacity:1;" d="M 17.390625 13.082031 C 17.179688 12.878906 17.390625 12.558594 17.503906 12.402344 C 17.609375 12.355469 17.707031 12.355469 17.871094 12.246094 L 18.136719 12.457031 C 17.871094 12.558594 17.65625 12.617188 17.503906 12.925781 Z M 17.390625 13.082031 "/>
<path style=" stroke:none;fill-rule:evenodd;fill:rgb(99.607843%,99.607843%,99.607843%);fill-opacity:1;" d="M 16.796875 11.871094 L 16.796875 11.355469 C 16.957031 10.875 17.335938 11.039062 17.632812 11.207031 C 17.554688 11.871094 17.035156 10.875 16.875 11.707031 Z M 16.796875 11.871094 "/>
<path style=" stroke:none;fill-rule:evenodd;fill:rgb(99.607843%,99.607843%,99.607843%);fill-opacity:1;" d="M 18.585938 13.855469 C 18.339844 13.609375 18.027344 13.449219 17.777344 13.203125 C 17.714844 13.121094 17.777344 13 17.894531 12.875 C 18.210938 13.082031 18.585938 13.40625 18.585938 13.777344 Z M 18.585938 13.855469 "/>
<path style=" stroke:none;fill-rule:evenodd;fill:rgb(99.607843%,99.607843%,99.607843%);fill-opacity:1;" d="M 24.929688 12.820312 C 23.84375 12.820312 25.371094 11.195312 25.371094 12.574219 Z M 24.929688 12.820312 "/>
<path style=" stroke:none;fill-rule:evenodd;fill:rgb(98.039216%,82.352941%,19.607843%);fill-opacity:1;" d="M 17.824219 13.925781 L 18.742188 13.160156 L 32.515625 31.933594 L 31.71875 32.65625 Z M 17.824219 13.925781 "/>
<path style=" stroke:none;fill-rule:evenodd;fill:rgb(98.039216%,82.352941%,19.607843%);fill-opacity:1;" d="M 14.492188 8.992188 L 15.28125 8.332031 L 17.136719 10.902344 L 16.46875 11.515625 Z M 14.492188 8.992188 "/>
</g>
</svg>
