<?xml version="1.0" encoding="UTF-8"?>
<svg width="30px" height="30px" viewBox="0 0 30 30" version="1.1" xmlns="http://www.w3.org/2000/svg" xmlns:xlink="http://www.w3.org/1999/xlink">
    <!-- Generator: Sketch 47.1 (45422) - http://www.bohemiancoding.com/sketch -->
    <title>mosreg.ru</title>
    <desc>Created with Sketch.</desc>
    <defs></defs>
    <g id="Page-1" stroke="none" stroke-width="1" fill="none" fill-rule="evenodd">
        <g id="Artboard-3-Copy" transform="translate(-205.000000, -397.000000)">
            <g id="mosreg.ru" transform="translate(205.000000, 397.000000)">
                <circle id="Oval-3" fill="#C7292A" cx="15" cy="15" r="15"></circle>
                <g id="herb" transform="translate(6.000000, 5.000000)">
                    <path d="M7.55964072,19.3066667 L7.36740948,19.2552593 C7.30019445,19.1597037 7.33540232,19.0102963 7.13997037,18.9147407 L7.13997037,18.7922963 C7.20727954,18.7188148 7.39951078,18.7188148 7.52763356,18.7653333 C7.39951078,18.9147407 7.71986479,19.0862222 7.62054846,19.2552593 L7.55964072,19.3066667 Z" id="Fill-1" fill="#A6A8AB"></path>
                    <path d="M12.1814519,19.723037 C12.1310815,19.6226667 12.1814519,19.4781481 12.1537481,19.3556296 C12.1814519,19.3556296 12.2570815,19.2331852 12.3327111,19.3066667 L12.2798222,19.3777037 C12.2798222,19.4536296 12.2570815,19.5271111 12.3327111,19.6226667 C12.4587852,19.6226667 12.3075259,19.723037 12.2570815,19.6985926 L12.1814519,19.723037 Z M5.15108148,18.4738519 C4.97211852,18.3513333 4.97211852,18.0819259 4.97211852,17.8614815 L5.07552593,17.7634815 C5.15108148,17.738963 5.22419259,17.7634815 5.32752593,17.738963 C5.4536,17.9594074 5.32752593,18.1774815 5.20152593,18.4248148 L5.15108148,18.4738519 Z M2.47663704,16.8057778 L1.99767407,16.3917778 C1.61952593,16.1934074 1.36745185,15.7034815 1.34226667,15.265037 L1.6473037,14.2851852 C1.84641481,13.8663704 2.30271111,13.3764444 2.0733037,12.84 C2.02545185,12.6195556 1.8716,12.4971111 1.7456,12.2742222 L2.05056296,11.7108148 C2.09848889,11.7842963 2.12367407,11.8088148 2.17663704,11.8332593 C3.0816,12.813037 2.50434074,13.9668148 2.17663704,14.9686667 C2.15137778,15.167037 2.19937778,15.4585185 2.35056296,15.558963 L3.00848889,15.8504444 C3.05885926,15.9484444 3.0816,15.9998519 3.18493333,16.0243704 L4.4453037,16.1713333 L4.46797037,16.2448148 L4.52093333,16.2693333 L5.52922963,15.9484444 L6.08382222,15.8504444 L6.7618963,15.5344444 C6.8878963,15.728 6.91567407,15.9998519 7.04167407,16.0954074 L7.13997037,16.1222963 L8.04997037,15.972963 C7.87100741,15.580963 7.59626667,15.265037 7.36685926,15.0200741 L9.48426667,15.314 L9.23219259,14.8461481 C9.58515556,14.6257037 9.23219259,14.2582963 9.28263704,14.0647407 L10.3161185,14.5301481 C10.8202667,15.1914815 11.6269333,14.7481481 12.2570815,15.0911111 C12.6856741,15.8259259 12.0554519,16.6122222 12.2570815,17.3471111 C12.3578963,17.565037 12.5848593,17.6875556 12.8116741,17.738963 L13.4418222,17.641037 L13.7696,16.6612593 C13.8199704,16.3403704 13.4418222,16.2448148 13.3158222,16.0954074 L12.8621185,14.8461481 C12.9881185,14.7481481 12.8873037,14.6771852 12.8873037,14.5791852 C12.7696741,14.4468889 12.8705136,14.3399259 13.1898222,14.2582963 L13.3410074,14.2582963 C13.3662667,14.2117778 13.4418222,14.1358519 13.3662667,14.0647407 C13.2401926,14.0647407 13.3410074,13.9668148 13.2881185,13.8908889 C13.3914519,13.8908889 13.5452296,13.8908889 13.6712296,13.8663704 L14.1224889,14.7751111 C14.1224889,14.8240741 14.1224889,14.9220741 14.1753778,14.9931111 C14.374563,14.9465926 14.500563,15.167037 14.6014519,15.314 L15.3097481,16.6367407 C15.2316,16.6122222 15.1559704,16.5608148 15.0576741,16.5142963 C14.5257481,16.9282222 14.8787111,17.7855556 14.0972296,18.054963 L13.4418222,18.8412593 C13.4418222,18.8878519 13.3158222,18.8657778 13.2881185,18.9637778 C13.1898222,19.0102963 13.0889333,18.9392593 12.9629333,19.0371852 C12.8873037,19.0617037 12.9377481,19.1597037 12.9099704,19.2552593 C12.9629333,19.3311852 13.0637481,19.3777037 13.1141926,19.5271111 C13.5931556,19.6496296 14.3014519,19.1328148 14.626637,19.7451111 C14.500563,19.7965926 14.1753778,19.6005926 14.0216741,19.7451111 C13.9964148,19.8676296 13.9964148,19.9900741 14.0216741,20.1395556 C13.9460444,20.1884444 13.8199704,20.0415556 13.7191556,20.1125185 C13.6435259,20.1884444 13.7443407,20.310963 13.7191556,20.4088889 L13.6939704,20.5068889 C13.4670815,20.3844444 13.0360444,19.9900741 12.7613037,20.2864444 C12.6578963,20.3354815 12.5318222,20.3574815 12.4058963,20.2864444 L12.3578963,20.1395556 C12.080637,20.1395556 11.9294519,20.4088889 11.702563,20.4579259 C11.6269333,20.310963 11.7277481,20.1884444 11.7277481,20.0415556 C11.4504148,20.0905185 11.0471556,20.017037 10.8202667,20.2864444 L10.744637,20.262 L11.6017481,19.5002222 C11.6017481,19.4536296 11.5764889,19.3556296 11.5236,19.2821481 C11.3975259,19.1597037 11.1227852,18.9392593 10.8707111,19.0371852 C10.618637,19.0102963 10.5430074,19.2821481 10.3161185,19.3777037 C10.1900444,19.2821481 10.1371556,18.9147407 9.86241481,18.9637778 C9.38093333,18.9882222 8.70537778,18.9147407 8.37515556,18.4738519 L8.30204444,18.4983704 C8.30204444,18.7653333 8.20122963,19.1328148 8.47848889,19.3066667 C8.68019259,19.4291852 8.92967407,19.3311852 9.15663704,19.3556296 C9.25493333,19.4781481 9.4338963,19.5516296 9.53471111,19.6985926 C9.28263704,19.6741481 9.03056296,19.6226667 8.75322963,19.6496296 L8.73056296,19.6985926 C9.00278519,19.7451111 9.20700741,19.919037 9.33308148,20.164 C9.23219259,20.164 9.00278519,20.066 8.87678519,19.9435556 L8.82885926,19.968 C8.75322963,20.0415556 8.82885926,20.164 8.85411852,20.262 C8.75322963,20.310963 8.65493333,20.212963 8.5793037,20.0905185 C8.37515556,19.919037 8.10041481,19.968 7.84826667,19.919037 C7.67182222,20.0415556 7.92397037,20.235037 7.99708148,20.3844444 C7.7978963,20.3574815 7.64411852,20.212963 7.39204444,20.235037 C7.21811852,19.9900741 6.8878963,19.9435556 6.5878963,20.0415556 C6.53752593,19.9435556 6.50982222,19.821037 6.35856296,19.7720741 L5.22419259,20.1395556 C5.27715556,19.968 5.55448889,19.9435556 5.68048889,19.7720741 C5.50152593,19.723037 5.30234074,19.8676296 5.09819259,19.8455556 C5.50152593,19.6005926 6.00567407,19.4536296 6.43671111,19.4046667 C6.50982222,19.3311852 6.4618963,19.2087407 6.48456296,19.1107407 C6.41145185,19.0862222 6.38374815,18.9882222 6.28545185,18.9392593 C6.23248889,18.7653333 6.28545185,18.5962963 6.3358963,18.3979259 C6.43671111,18.2999259 6.63582222,18.152963 6.73663704,18.0304444 L6.63582222,17.4181481 C6.53752593,17.3471111 6.5878963,17.4940741 6.48456296,17.4940741 C6.48456296,17.3960741 6.41145185,17.3960741 6.38374815,17.2956296 C6.20982222,17.1731852 5.98048889,17.1976296 5.7813037,17.1731852 C5.7813037,17.2735556 5.68048889,17.1731852 5.6553037,17.2735556 C5.95774815,17.3715556 5.8796,17.6875556 5.93256296,17.9594074 L5.72841481,18.4983704 C5.40315556,18.8412593 4.8713037,18.8878519 4.42011852,18.8167407 C4.01678519,18.6942963 3.86300741,18.2288889 3.68908148,17.886 L3.83782222,16.9282222 L2.47663704,16.8057778 Z" id="Fill-3" fill="#221F24"></path>
                    <path d="M7.51811852,7.89207407 L7.36685926,7.94348148 C6.94085926,8.25948148 6.31063704,8.31088889 6.00567407,8.74940741 L6.05856296,8.87185185 C6.15945185,8.92333333 6.31063704,8.92333333 6.35856296,9.01881481 C6.25774815,9.19274074 6.18463704,9.3617037 6.05856296,9.43762963 L5.15108148,9.56014815 C4.31922963,9.65814815 3.53782222,8.58037037 2.6556,8.87185185 C1.97241481,9.21481481 1.56115556,9.75362963 1.18308148,10.3415556 L1.11545185,10.4697037 L0.916266667,11.2022222 L0.863303704,11.6152593 L0.33397037,13.156 C0.412118519,13.6459259 0.33397037,14.3342222 0.812933333,14.6526667 C0.891007407,14.5791852 0.790192593,14.5032593 0.790192593,14.4566667 C0.664192593,14.0133333 0.790192593,13.4768889 1.01708148,13.1314815 L0.989377778,13.084963 C1.09019259,12.9355556 1.24145185,12.8865185 1.29441481,12.7175556 C1.52122963,12.5681481 1.54641481,12.3745926 1.7456,12.2742222 L2.05056296,11.7108148 C2.05056296,11.5883704 2.15137778,11.4658519 2.22448889,11.3434074 C2.22448889,11.1964444 2.22448889,11.0274074 2.35056296,10.9048889 C2.72871111,10.4885185 3.13448889,9.99859259 3.7898963,9.92755556 C3.96382222,9.99859259 4.11508148,9.92755556 4.31922963,10.0255556 C3.15974815,11.5638519 4.31922963,13.7438519 2.52952593,14.7237037 L2.35056296,15.558963 L1.99767407,16.3917778 C1.89937778,16.5608148 1.7456,16.6612593 1.7456,16.8571852 C2.22448889,17.4181481 1.94722963,18.1064444 2.22448889,18.6697778 L3.15974815,18.7922963 L2.72871111,18.0084444 L2.40352593,17.3471111 C2.30271111,17.1976296 2.40352593,16.9282222 2.47663704,16.8057778 L3.00848889,15.8644444 L3.38663704,15.069037 L6.20982222,14.3097037 L5.6553037,15.2894815 L6.08382222,15.8504444 L6.7618963,15.5344444 C6.68878519,15.5344444 6.66352593,15.4364444 6.5878963,15.3605185 C7.21811852,14.9465926 7.64411852,14.4787407 8.15078519,13.9668148 L10.0110815,13.8663704 L11.8033778,13.1314815 L12.3327111,12.986963 C13.4141185,12.9355556 14.4274519,12.0782222 15.5340444,12.0537778 C15.6096741,12.1517037 15.7357481,12.0292593 15.8138963,12.0782222 C15.9399704,12.3501481 16.088637,12.6195556 16.3911556,12.742 C16.4667852,12.8865185 16.2903407,13.0334815 16.3407111,13.156 L16.7944148,13.4988889 L16.7692296,14.7016296 C16.8953037,15.0445926 17.2733778,15.1425926 17.5784148,15.1914815 C17.5254519,14.8976296 17.6263407,14.5546667 17.424637,14.3342222 C17.298637,14.3097037 17.3263407,14.1627407 17.2230074,14.1358519 L17.1473778,12.9624444 C16.6684148,12.6195556 16.1919704,12.0537778 16.2650815,11.4168889 L15.1836741,11.2943704 L16.3180444,10.0720741 C16.5927852,10.295037 16.8953037,10.562 17.1473778,10.7824444 C17.3994519,10.926963 17.2003407,11.1253333 17.2481926,11.2943704 C17.3490074,11.3702963 17.4750815,11.3702963 17.5002667,11.4168889 C17.5784148,11.5883704 17.5784148,11.7622963 17.5784148,11.9067407 L17.4524148,11.9557778 C17.3263407,12.1297037 17.2733778,12.3231852 17.3263407,12.4971111 L17.9288593,12.911037 C18.0296741,12.2986667 17.9792296,11.6152593 17.8027852,10.976 C17.3742667,10.464 16.9204889,9.87614815 16.6684148,9.26377778 C15.9399704,9.14125926 15.6096741,9.87614815 15.0299704,10.0500741 L14.9316,9.94962963 C15.4080444,9.41318519 14.9038963,8.92333333 14.6796,8.45792593 L14.0720444,7.91659259 C13.6712296,7.11066667 13.2653778,6.29992593 13.1620444,5.49155556 C13.5452296,5.396 13.8704148,5.56503704 14.1981185,5.66303704 C14.4753778,5.712 14.4753778,5.98140741 14.5535259,6.10392593 C14.7778963,6.25333333 15.0803407,6.15288889 15.3097481,6.15288889 C15.3576,6.07940741 15.3828593,6.03044444 15.3828593,6.00844444 C15.4357481,5.88592593 15.3097481,5.83451852 15.2820444,5.73651852 C15.3576,5.58955556 15.4584889,5.56503704 15.4584889,5.41807407 L14.6796,4.75674074 L14.3241185,3.87488889 C14.2736741,3.75244444 14.1981185,3.70340741 14.1224889,3.65444444 L13.9712296,3.60548148 C13.8956,3.50748148 13.9233037,3.336 13.8199704,3.238 L13.8704148,3.16459259 C14.0493778,3.19148148 14.0972296,3.336 14.2233037,3.336 C14.1753778,3.19148148 14.1476741,3.04207407 14.0493778,2.99303704 L13.1620444,2.82407407 C13.0637481,2.77259259 13.0133037,2.72362963 12.9629333,2.67466667 C12.7108593,2.50318519 12.3075259,2.45659259 12.080637,2.55214815 C12.2067111,2.65014815 12.3578963,2.67466667 12.3831556,2.82407407 L11.7277481,2.87059259 C11.4752296,2.95518519 11.228563,2.98148148 10.9870074,2.99562963 C10.5968593,3.2257037 10.3678222,3.50044444 10.2243407,3.78577778 C10.2853778,4.00392593 9.82248889,4.08259259 9.55567407,4.05318519 C9.52182222,4.05140741 9.48552593,4.04414815 9.44737778,4.03140741 C9.09308148,4.018 8.88900741,4.06822222 8.54263704,4.24807407 C8.14767407,4.20755556 7.74871111,4.12837037 7.38908148,3.97392593 C7.10841481,3.85340741 6.96234074,3.89533333 6.90397037,4.16074074 C6.71997037,4.99740741 7.02604444,6.21666667 7.50708148,6.85459259 C7.78537778,7.3957037 6.99678519,7.07607407 7.26604444,7.76955556 C7.36685926,7.74503704 7.51811852,7.82103704 7.51811852,7.89207407 Z" id="Fill-5" fill="#FFFFFF"></path>
                    <path d="M5.40315556,3.238 L4.29404444,3.94837037 L3.45974815,4.87918519 C3.7898963,4.78362963 4.0898963,4.73222222 4.39485926,4.75674074 C4.49315556,4.78362963 4.46797037,4.90607407 4.54619259,4.87918519 C4.59404444,5.61407407 3.53782222,5.34459259 3.26056296,5.81 C3.26056296,5.95696296 3.26056296,6.07940741 3.33367407,6.20192593 C3.45974815,6.66733333 2.98078519,6.96125926 2.75641481,7.1817037 L2.15137778,8.31088889 L3.86300741,7.968 C4.84611852,8.06592593 5.95774815,8.47992593 6.81485926,8.06592593 L7.26604444,7.76955556 C6.99678519,7.07607407 7.78537778,7.3957037 7.50708148,6.85459259 C7.02604444,6.21666667 6.71997037,4.99740741 6.90397037,4.16074074 C6.96234074,3.89533333 7.10841481,3.85340741 7.38908148,3.97392593 C7.74871111,4.12837037 8.14767407,4.20755556 8.54263704,4.24807407 C8.88900741,4.06822222 9.09308148,4.018 9.44737778,4.03140741 C9.66441481,4.10362963 10.2949333,4.03814815 10.2243407,3.78577778 C10.3680444,3.49992593 10.5976741,3.22466667 10.9891556,2.99437037 C10.6823407,2.93259259 9.94745185,3.09103704 9.66071111,3.26251852 C9.4236,3.5022963 9.16100741,3.56281481 8.79582222,3.44392593 C8.49597037,3.35503704 8.1833037,3.26607407 7.89626667,2.94651852 C7.06693333,2.74807407 6.20982222,2.74807407 5.40315556,3.238" id="Fill-8" fill="#6F0005"></path>
                    <path d="M6.00100741,5.67355556 C6.67397037,6.18192593 6.7833037,5.4497037 6.36708148,4.56644444 C6.19137778,4.19362963 5.7653037,3.81555556 5.2878963,3.31488889 L4.89908148,2.18474074 L4.64700741,2.18474074 C4.64700741,1.91525926 4.4453037,1.69481481 4.36715556,1.49888889 C3.91778564,1.49888889 3.83782222,1.98881481 3.86300741,2.0842963 C3.66063704,2.96259259 4.68115556,2.94851852 4.79300741,3.64281481 C5.16782222,4.04725926 5.29648889,6.19844444 6.00100741,5.67355556 Z" id="Fill-10" fill="#FFFFFF"></path>
                    <path d="M9.66426667,3.26037037 C9.60915556,2.82977778 9.58848889,2.2702963 9.73634074,1.93977778 L9.4338963,0.935481481 C9.58515556,0.859555556 9.66071111,0.813037037 9.75908148,0.764 C9.86241481,0.614592593 9.81197037,0.470074074 9.78678519,0.34762963 C9.71115556,0.225185185 9.53471111,0.274148148 9.4338963,0.225185185 C8.62722963,-0.313703704 7.89626667,0.788518519 7.06693333,0.44562963 L7.13997037,0.543555556 C7.29374815,0.715037037 7.57100741,0.666074074 7.69708148,0.788518519 C7.61893333,0.96 7.31893333,0.813037037 7.21811852,0.96 C7.54582222,1.13148148 7.87100741,1.00896296 8.17604444,0.96 C8.3273037,1.08251852 8.4533037,1.058 8.60456296,1.08251852 C8.60456296,1.20496296 8.5793037,1.27844444 8.52893333,1.34948148 C7.95967407,1.68859259 8.10463704,2.47511111 7.89537778,2.94637037 C7.89567407,2.94637037 7.89597037,2.94651852 7.89626667,2.94651852 C8.1833037,3.26607407 8.49597037,3.35503704 8.79582222,3.44392593 C9.16100741,3.56281481 9.4236,3.5022963 9.66071111,3.26251852 C9.66197037,3.26177778 9.66308148,3.26111111 9.66426667,3.26037037" id="Fill-12" fill="#FFFFFF"></path>
                    <path d="M0.916266667,11.2022222 L0.863303704,11.6152593 C0.386933333,11.3948148 -0.069362963,10.8534815 0.00878518519,10.295037 C0.0976740741,9.96007407 0.239155556,9.75681481 0.796859259,9.99874074 C0.844785185,9.8762963 0.852637037,9.70244444 0.774340741,9.45977778 C0.984859259,9.69785185 1.0998963,9.99177778 1.18308148,10.3415556 L1.11545185,10.4697037 C0.902933333,10.4045926 0.682488889,10.4374815 0.48597037,10.46 C0.613896296,10.3951852 0.717896296,10.3224444 0.750266667,10.1937778 C0.569822222,10.0155556 0.4136,10.0467407 0.326044444,10.317037 C0.225155556,10.731037 0.686859259,11.0086667 0.916266667,11.2022222" id="Fill-15" fill="#221F24"></path>
                    <path d="M9.65097748,0.945259259 C9.65097748,0.797260963 9.15747748,0.663530128 9.32697748,0.445259259 L9.65097748,0.945259259 Z" id="Fill-19" fill="#FEFEFE"></path>
                    <path d="M7.83917549,13.0479259 C7.98961676,12.9082909 7.52187312,12.687561 8.12585708,12.5479259 C8.5940445,12.7126497 7.98961676,12.8523692 8.12585708,13.0199651 L7.83917549,13.0479259 Z" id="Fill-27" fill="#FEFEFE"></path>
                    <path d="M7.79197037,4.2811756 C7.70374815,4.11670752 7.67604444,3.98525237 7.58278519,3.78140741 C7.7818963,3.82078429 8.1373037,4.04451657 8.36419259,4.24179872 C8.22804444,4.29430123 8.06174815,4.31398967 7.88271111,4.17597171 L7.79197037,4.2811756 Z" id="Fill-37" fill="#FEFEFE"></path>
                    <path d="M4.43531283,2.84851852 C4.30880979,2.72668487 4.43531283,2.53594763 4.50177107,2.44228033 C4.56497612,2.41411398 4.62511386,2.41411398 4.72317463,2.34851852 L4.88128019,2.47356578 C4.72317463,2.53594763 4.59351134,2.57044668 4.50177107,2.75485122 L4.43531283,2.84851852 Z" id="Fill-39" fill="#FEFEFE"></path>
                    <path d="M4.07900741,2.12316047 L4.07900741,1.81392883 C4.17451903,1.52460869 4.40174318,1.62446789 4.57900741,1.72432708 C4.53358929,2.12316047 4.21993714,1.52460869 4.1245591,2.02330128 L4.07900741,2.12316047 Z" id="Fill-43" fill="#FEFEFE"></path>
                    <path d="M5.15137441,3.31355556 C5.00468121,3.16659259 4.81664419,3.06866667 4.66619246,2.92162963 C4.62860717,2.87266667 4.66619246,2.79918519 4.73760453,2.7257037 C4.92575209,2.84822222 5.15137441,3.04414815 5.15137441,3.26703704 L5.15137441,3.31355556 Z" id="Fill-49" fill="#FEFEFE"></path>
                    <path d="M8.9569161,2.69238349 C8.30517489,2.69238349 9.22316431,1.71688349 9.22316431,2.54338349 L8.9569161,2.69238349 Z" id="Fill-97" fill="#FEFEFE"></path>
                    <polygon id="Path-2" fill="#FAD232" points="4.69354248 3.35546875 5.2444458 2.89544678 13.5101318 14.15979 13.0310669 14.5934448"></polygon>
                    <polygon id="Path-2-Copy" fill="#FAD232" points="2.69582059 0.394897461 3.16969755 0 4.28216553 1.54083252 3.88012695 1.90936279"></polygon>
                </g>
            </g>
        </g>
    </g>
</svg>